HIERARCHY
ROOT root
{
	OFFSET	0	13.1	24.9
	CHANNELS 6  Xposition Yposition Zposition Xrotation Yrotation Zrotation
	JOINT spine_1
	{
		OFFSET	0	9.99999	0
		CHANNELS 3  Xrotation Yrotation Zrotation
		JOINT spine_2
		{
			OFFSET	0	112	-10
			CHANNELS 3  Xrotation Yrotation Zrotation
			JOINT spine_3
			{
				OFFSET	0	206.5	19.3
				CHANNELS 3  Xrotation Yrotation Zrotation
				JOINT spine_4
				{
					OFFSET	0	110.4	14.6
					CHANNELS 3  Xrotation Yrotation Zrotation
					JOINT neck_1
					{
						OFFSET	0	71.8	-50.3
						CHANNELS 3  Xrotation Yrotation Zrotation
						JOINT neck_2
						{
							OFFSET	0	86.2	-25.8
							CHANNELS 3  Xrotation Yrotation Zrotation
							JOINT head_ee
							{
								OFFSET	0	179.8	-8.7
								CHANNELS 3  Xrotation Yrotation Zrotation
								End Site
								{
									OFFSET	1	0	0
								}
							}
						}
					}
					JOINT left_clavicle
					{
						OFFSET	-43.2	22.4	-70.8
						CHANNELS 3  Xrotation Yrotation Zrotation
						JOINT left_shoulder
						{
							OFFSET	-93.9	-5.79999	48.7
							CHANNELS 3  Xrotation Yrotation Zrotation
							JOINT left_elbow
							{
								OFFSET	-291.4	-30.8	15.2
								CHANNELS 3  Xrotation Yrotation Zrotation
								JOINT left_lowarm_twist
								{
									OFFSET	-110.7	-3.89999	13.6
									CHANNELS 3  Xrotation Yrotation Zrotation
									JOINT left_hand
									{
										OFFSET	-110.7	-3.89999	13.6
										CHANNELS 3  Xrotation Yrotation Zrotation
										JOINT left_ee
										{
											OFFSET	-80.8	-5.10001	12.1
											CHANNELS 3  Xrotation Yrotation Zrotation
											End Site
											{
												OFFSET	1	0	0
											}
										}
									}
								}
							}
						}
					}
					JOINT right_clavicle
					{
						OFFSET	43.2	22.4	-70.8
						CHANNELS 3  Xrotation Yrotation Zrotation
						JOINT right_shoulder
						{
							OFFSET	93.9	-5.79999	48.7
							CHANNELS 3  Xrotation Yrotation Zrotation
							JOINT right_elbow
							{
								OFFSET	291.4	-30.8	15.2
								CHANNELS 3  Xrotation Yrotation Zrotation
								JOINT right_lowarm_twist
								{
									OFFSET	110.7	-3.89999	13.6
									CHANNELS 3  Xrotation Yrotation Zrotation
									JOINT right_hand
									{
										OFFSET	110.7	-3.89999	13.6
										CHANNELS 3  Xrotation Yrotation Zrotation
										JOINT right_ee
										{
											OFFSET	80.8	-5.10001	12.1
											CHANNELS 3  Xrotation Yrotation Zrotation
											End Site
											{
												OFFSET	1	0	0
											}
										}
									}
								}
							}
						}
					}
				}
			}
		}
	}
	JOINT left_hip
	{
		OFFSET	-82.8	-127.5	0.300001
		CHANNELS 3  Xrotation Yrotation Zrotation
		JOINT left_knee
		{
			OFFSET	-28.2	-396.7	2.2
			CHANNELS 3  Xrotation Yrotation Zrotation
			JOINT left_ankle
			{
				OFFSET	-11.7	-411.3	35.4
				CHANNELS 3  Xrotation Yrotation Zrotation
				JOINT left_toes
				{
					OFFSET	0	-60	-88.6
					CHANNELS 3  Xrotation Yrotation Zrotation
					JOINT left_foot_ee
					{
						OFFSET	-22.5	-16.5	-42.2
						CHANNELS 3  Xrotation Yrotation Zrotation
						End Site
						{
							OFFSET	1	0	0
						}
					}
				}
			}
		}
	}
	JOINT right_hip
	{
		OFFSET	82.8	-127.5	0.300001
		CHANNELS 3  Xrotation Yrotation Zrotation
		JOINT right_knee
		{
			OFFSET	28.2	-396.7	2.2
			CHANNELS 3  Xrotation Yrotation Zrotation
			JOINT right_ankle
			{
				OFFSET	11.7	-411.3	35.4
				CHANNELS 3  Xrotation Yrotation Zrotation
				JOINT right_toes
				{
					OFFSET	0	-60	-88.6
					CHANNELS 3  Xrotation Yrotation Zrotation
					JOINT right_foot_ee
					{
						OFFSET	22.5	-16.5	-42.2
						CHANNELS 3  Xrotation Yrotation Zrotation
						End Site
						{
							OFFSET	1	0	0
						}
					}
				}
			}
		}
	}
}
MOTION
Frames: 14
Frame Time: 0.02
2800.94 716.97 -1473.77 -20.6217414709 88.1337805812 24.2213174126 2.31981 -0.769435 -3.83154 2.32782 -0.524252 -3.87265 2.36249 0.140333 -3.9054 2.34153 -0.47774 -3.87865 -9.4278 8.68802 12.1031 -9.04385 7.99806 13.8755 -0.0 0.0 -0.0 3.89988 1.26013 7.58533 12.8534 -25.2696 71.9311 2.96556 -55.7453 1.56862 -34.5007 -2.3862 3.63838 -2.89737 11.3517 -13.8656 -0.0 0.0 -0.0 -3.5994 -12.516 4.54052 -26.9635 21.8504 -62.2273 0.424938 11.8875 -0.0442413 47.786 0.814912 5.87532 0.0256695 -7.55867 -3.31377 0.0 0.0 0.0 -17.5097 4.50745 1.32601 4.57197 -0.215091 -0.668302 41.3299 9.42173 -4.98705 -10.76 0.0 0.0 -0.0 0.0 -0.0 25.6907 18.8073 -5.38991 2.19738 0.0967048 0.323294 7.76405 -15.558 1.12151 -23.7503 0.0 0.0 0.0 0.0 0.0 
2727.88235965 718.669 -1504.0697817 151.828353333 87.6510523237 -146.42204248 1.96756 -0.504274 -3.79358 1.97552 -0.262037 -3.81793 1.99278 0.414626 -3.80441 1.97264 -0.19096 -3.82214 -6.16876 6.08055 7.4585 -6.02177 5.75946 8.65477 -0.0 0.0 -0.0 3.5203 -3.71196 6.55794 6.2841 -26.0078 73.0355 2.15099 -46.8114 0.931162 -30.2763 -1.9813 3.27853 -1.94249 7.35652 -9.60105 -0.0 0.0 -0.0 -3.12882 -11.0384 4.03308 -22.0222 25.6822 -68.1693 0.446011 12.459 -0.0486849 45.576 0.670604 5.63204 -0.570735 -12.6773 -1.61867 0.0 0.0 0.0 -13.1363 4.79448 -4.84827 -15.7428 0.32204 2.38685 42.4001 20.6204 -5.26013 -6.12939 0.0 0.0 -0.0 0.0 -0.0 28.3708 23.1972 -11.3161 -14.5476 -0.320731 -2.20348 20.1185 -13.834 2.76432 -18.1915 0.0 0.0 0.0 0.0 0.0 
2728.46928518 718.669 -1505.44792728 131.636123853 88.5164351534 -126.219311417 1.96756 -0.504274 -3.79358 1.97552 -0.262037 -3.81793 1.99278 0.414626 -3.80441 1.97264 -0.19096 -3.82214 -6.16876 6.08055 7.4585 -6.02177 5.75946 8.65477 -0.0 0.0 -0.0 3.5203 -3.71196 6.55794 6.2841 -26.0078 73.0355 2.15099 -46.8114 0.931162 -30.2763 -1.9813 3.27853 -1.94249 7.35652 -9.60105 -0.0 0.0 -0.0 -3.12882 -11.0384 4.03308 -22.0222 25.6822 -68.1693 0.446011 12.459 -0.0486849 45.576 0.670604 5.63204 -0.570735 -12.6773 -1.61867 0.0 0.0 0.0 -13.1363 4.79448 -4.84827 -15.7428 0.32204 2.38685 42.4001 20.6204 -5.26013 -6.12939 0.0 0.0 -0.0 0.0 -0.0 28.3708 23.1972 -11.3161 -14.5476 -0.320731 -2.20348 20.1185 -13.834 2.76432 -18.1915 0.0 0.0 0.0 0.0 0.0 
2697.69271933 717.45 -1520.82085823 131.371862005 87.637667331 -125.514667455 1.56651 -0.24476 -3.80483 1.57456 -0.0023315 -3.81269 1.57509 0.697276 -3.74848 1.5555 0.0969723 -3.81145 -6.26613 4.20468 6.20967 -6.1628 3.22168 7.04939 -0.0 0.0 -0.0 2.88847 -5.23741 5.18328 2.46512 -26.2731 74.3752 1.85176 -42.5261 0.720647 -27.6838 -1.74641 3.04338 -1.39425 7.24083 -6.05706 -0.0 0.0 -0.0 -2.3963 -9.55521 3.03439 -17.3458 27.4301 -70.3647 0.471466 13.146 -0.0543257 44.9843 0.633573 5.56599 -0.792807 -14.7489 -1.11095 0.0 0.0 0.0 -7.12123 5.19323 -8.52904 -31.3385 -0.00952491 4.74986 40.5141 24.9009 -5.21378 -3.78705 0.0 0.0 -0.0 0.0 -0.0 28.1931 25.7209 -13.7678 -17.8174 -0.315232 -2.70507 25.343 -11.1994 3.3811 -16.2738 0.0 0.0 0.0 0.0 0.0 
2698.70102073 717.45 -1522.97340784 101.523887768 88.1909613378 -95.6481226799 1.56651 -0.24476 -3.80483 1.57456 -0.0023315 -3.81269 1.57509 0.697276 -3.74848 1.5555 0.0969723 -3.81145 -6.26613 4.20468 6.20967 -6.1628 3.22168 7.04939 -0.0 0.0 -0.0 2.88847 -5.23741 5.18328 2.46512 -26.2731 74.3752 1.85176 -42.5261 0.720647 -27.6838 -1.74641 3.04338 -1.39425 7.24083 -6.05706 -0.0 0.0 -0.0 -2.3963 -9.55521 3.03439 -17.3458 27.4301 -70.3647 0.471466 13.146 -0.0543257 44.9843 0.633573 5.56599 -0.792807 -14.7489 -1.11095 0.0 0.0 0.0 -7.12123 5.19323 -8.52904 -31.3385 -0.00952491 4.74986 40.5141 24.9009 -5.21378 -3.78705 0.0 0.0 -0.0 0.0 -0.0 28.1931 25.7209 -13.7678 -17.8174 -0.315232 -2.70507 25.343 -11.1994 3.3811 -16.2738 0.0 0.0 0.0 0.0 0.0 
2684.92396512 725.181 -1526.38305473 75.7604079566 86.6274864788 -70.5265217522 1.04697 -0.242493 -3.5884 1.05414 -0.0138127 -3.59655 1.05631 0.678254 -3.53212 1.03892 0.112286 -3.59482 -6.86516 3.34873 7.47579 -6.71003 0.788705 8.15185 -0.0 0.0 -0.0 3.0267 -5.31172 5.45587 0.325524 -26.2726 74.7066 1.65562 -39.3536 0.592076 -25.9995 -1.59964 2.88506 -1.07056 6.57179 -4.24315 -0.0 0.0 -0.0 -1.99403 -9.128 2.40214 -15.2235 28.7898 -70.2223 0.579743 16.0236 -0.0815997 44.9747 0.632979 5.56492 -0.654426 -14.8869 -2.02789 0.0 0.0 0.0 -0.812812 6.21718 -11.4454 -36.9042 -0.28165 5.55999 36.9792 25.7401 -4.89105 -4.95632 0.0 0.0 -0.0 0.0 -0.0 25.4498 27.2124 -13.7561 -19.0798 -0.305453 -2.89851 25.0698 -10.5429 3.34649 -15.1853 0.0 0.0 0.0 0.0 0.0 
2678.14411492 728.31 -1529.22032851 100.721352531 86.5329322865 -95.2976412533 0.730607 -0.236137 -3.52906 0.737535 -0.011239 -3.53692 0.740046 0.68847 -3.46937 0.723277 0.132265 -3.53447 -6.06319 2.63873 7.09401 -5.92159 -0.355457 7.65274 -0.0 0.0 -0.0 2.94934 -6.13735 5.23632 -1.21253 -26.3585 75.1867 1.53438 -37.2354 0.516931 -25.2098 -1.53244 2.80936 -0.809213 6.22632 -2.68718 -0.0 0.0 -0.0 -1.64101 -8.54609 1.87378 -12.5788 29.9068 -70.395 0.635147 17.4654 -0.0975632 44.6239 0.61136 5.52558 -0.720403 -15.6739 -1.95285 0.0 0.0 0.0 2.09185 4.75956 -12.4614 -41.4096 -0.558873 6.19447 33.9556 25.9582 -4.57722 -5.79152 0.0 0.0 -0.0 0.0 -0.0 24.8601 27.6843 -14.1208 -19.8545 -0.297342 -3.01709 25.5075 -9.89565 3.39487 -14.4521 0.0 0.0 0.0 0.0 0.0 
2678.75782639 728.31 -1530.55982985 90.3223361903 86.593473109 -84.8799933507 0.730607 -0.236137 -3.52906 0.737535 -0.011239 -3.53692 0.740046 0.68847 -3.46937 0.723277 0.132265 -3.53447 -6.06319 2.63873 7.09401 -5.92159 -0.355457 7.65274 -0.0 0.0 -0.0 2.94934 -6.13735 5.23632 -1.21253 -26.3585 75.1867 1.53438 -37.2354 0.516931 -25.2098 -1.53244 2.80936 -0.809213 6.22632 -2.68718 -0.0 0.0 -0.0 -1.64101 -8.54609 1.87378 -12.5788 29.9068 -70.395 0.635147 17.4654 -0.0975632 44.6239 0.61136 5.52558 -0.720403 -15.6739 -1.95285 0.0 0.0 0.0 2.09185 4.75956 -12.4614 -41.4096 -0.558873 6.19447 33.9556 25.9582 -4.57722 -5.79152 0.0 0.0 -0.0 0.0 -0.0 24.8601 27.6843 -14.1208 -19.8545 -0.297342 -3.01709 25.5075 -9.89565 3.39487 -14.4521 0.0 0.0 0.0 0.0 0.0 
2679.70781462 728.31 -1532.56052263 74.8625567578 86.4709289265 -69.3922069233 0.730607 -0.236137 -3.52906 0.737535 -0.011239 -3.53692 0.740046 0.68847 -3.46937 0.723277 0.132265 -3.53447 -6.06319 2.63873 7.09401 -5.92159 -0.355457 7.65274 -0.0 0.0 -0.0 2.94934 -6.13735 5.23632 -1.21253 -26.3585 75.1867 1.53438 -37.2354 0.516931 -25.2098 -1.53244 2.80936 -0.809213 6.22632 -2.68718 -0.0 0.0 -0.0 -1.64101 -8.54609 1.87378 -12.5788 29.9068 -70.395 0.635147 17.4654 -0.0975632 44.6239 0.61136 5.52558 -0.720403 -15.6739 -1.95285 0.0 0.0 0.0 2.09185 4.75956 -12.4614 -41.4096 -0.558873 6.19447 33.9556 25.9582 -4.57722 -5.79152 0.0 0.0 -0.0 0.0 -0.0 24.8601 27.6843 -14.1208 -19.8545 -0.297342 -3.01709 25.5075 -9.89565 3.39487 -14.4521 0.0 0.0 0.0 0.0 0.0 
2671.26771424 732.969 -1539.0430449 83.1951019147 85.8297526919 -77.9504930214 0.450379 -0.153727 -3.41612 0.456869 0.0638316 -3.41898 0.455108 0.755416 -3.33519 0.439655 0.219527 -3.41253 -5.90515 2.07299 7.31737 -5.75145 -1.58652 7.78114 -0.0 0.0 -0.0 2.83995 -6.24331 5.00642 -3.01278 -26.1529 74.8132 1.30409 -32.8612 0.384586 -24.0831 -1.43841 2.69981 -0.591687 6.30273 -1.2331 -0.0 0.0 -0.0 -1.16065 -7.57188 1.16716 -9.36317 30.9059 -70.525 0.703958 19.2247 -0.119223 44.6627 0.613737 5.52993 -0.644557 -15.8704 -2.50294 0.0 0.0 0.0 5.00098 3.28901 -12.8753 -45.0369 -0.817903 6.68853 30.7089 25.7445 -4.20775 -6.65725 0.0 0.0 -0.0 0.0 -0.0 24.4019 28.9766 -15.6145 -19.4857 -0.301403 -2.96066 26.2447 -9.55692 3.47845 -13.9112 0.0 0.0 0.0 0.0 0.0 
2672.43125684 732.969 -1541.30499104 70.1345766573 85.5966836945 -64.8536718563 0.450379 -0.153727 -3.41612 0.456869 0.0638316 -3.41898 0.455108 0.755416 -3.33519 0.439655 0.219527 -3.41253 -5.90515 2.07299 7.31737 -5.75145 -1.58652 7.78114 -0.0 0.0 -0.0 2.83995 -6.24331 5.00642 -3.01278 -26.1529 74.8132 1.30409 -32.8612 0.384586 -24.0831 -1.43841 2.69981 -0.591687 6.30273 -1.2331 -0.0 0.0 -0.0 -1.16065 -7.57188 1.16716 -9.36317 30.9059 -70.525 0.703958 19.2247 -0.119223 44.6627 0.613737 5.52993 -0.644557 -15.8704 -2.50294 0.0 0.0 0.0 5.00098 3.28901 -12.8753 -45.0369 -0.817903 6.68853 30.7089 25.7445 -4.20775 -6.65725 0.0 0.0 -0.0 0.0 -0.0 24.4019 28.9766 -15.6145 -19.4857 -0.301403 -2.96066 26.2447 -9.55692 3.47845 -13.9112 0.0 0.0 0.0 0.0 0.0 
2666.55925863 737.985 -1549.79640847 64.5017447619 85.3206538499 -58.5855751005 0.2825 -0.113124 -2.92058 0.287242 0.0728684 -2.92186 0.285197 0.671777 -2.84458 0.27397 0.214299 -2.9149 -4.73586 1.37354 5.61994 -4.64335 -1.72959 5.97717 -0.0 0.0 -0.0 2.92311 -7.51948 5.07359 -3.93984 -25.8326 74.4045 0.910334 -24.2728 0.195768 -21.2223 -1.20951 2.41357 -0.538297 6.15415 -0.948195 -0.0 0.0 -0.0 0.126301 -4.98491 -0.824253 -7.31774 31.6452 -70.8503 0.746262 20.2881 -0.133524 43.9461 0.570267 5.4492 -0.617418 -15.1921 -2.3856 0.0 0.0 0.0 6.54418 2.57256 -14.1984 -47.8116 -1.03696 7.05504 29.1004 26.5682 -4.04153 -7.40135 0.0 0.0 -0.0 0.0 -0.0 22.7797 30.7491 -18.2382 -14.7233 -0.321163 -2.23044 27.0394 -5.58805 3.56384 -14.6574 0.0 0.0 0.0 0.0 0.0 
2669.60597037 737.985 -1554.94617321 44.9701513179 84.0196437404 -38.9720520434 0.2825 -0.113124 -2.92058 0.287242 0.0728684 -2.92186 0.285197 0.671777 -2.84458 0.27397 0.214299 -2.9149 -4.73586 1.37354 5.61994 -4.64335 -1.72959 5.97717 -0.0 0.0 -0.0 2.92311 -7.51948 5.07359 -3.93984 -25.8326 74.4045 0.910334 -24.2728 0.195768 -21.2223 -1.20951 2.41357 -0.538297 6.15415 -0.948195 -0.0 0.0 -0.0 0.126301 -4.98491 -0.824253 -7.31774 31.6452 -70.8503 0.746262 20.2881 -0.133524 43.9461 0.570267 5.4492 -0.617418 -15.1921 -2.3856 0.0 0.0 0.0 6.54418 2.57256 -14.1984 -47.8116 -1.03696 7.05504 29.1004 26.5682 -4.04153 -7.40135 0.0 0.0 -0.0 0.0 -0.0 22.7797 30.7491 -18.2382 -14.7233 -0.321163 -2.23044 27.0394 -5.58805 3.56384 -14.6574 0.0 0.0 0.0 0.0 0.0 
2661.34347935 742.241 -1558.82150685 51.1711829234 83.7115294188 -44.6211979601 -0.100501 -0.121319 -3.18746 -0.0948529 0.0816488 -3.18872 -0.0968836 0.756039 -3.09896 -0.110192 0.257387 -3.17938 -4.06261 2.49532 7.52799 -3.90069 -1.20896 8.1471 -0.0 0.0 -0.0 3.58754 -8.19224 6.38313 -5.55897 -25.6192 75.1626 0.636486 -17.5 0.0979655 -19.6179 -1.08752 2.24822 -0.489498 6.17908 -0.618779 -0.0 0.0 -0.0 0.41736 -2.96817 -1.13477 -3.79456 32.3466 -70.6478 0.789197 21.3527 -0.148785 43.521 0.544956 5.40105 -0.56398 -14.9528 -2.6164 0.0 0.0 0.0 8.18058 1.70399 -14.6528 -49.5983 -1.18737 7.28536 28.0714 27.006 -3.92982 -7.77899 0.0 0.0 -0.0 0.0 -0.0 20.6697 32.1223 -19.0821 -10.9905 -0.294213 -1.65843 27.0717 -2.81819 3.57421 -15.1695 0.0 0.0 0.0 0.0 0.0 
